<?xml version="1.0" encoding="utf-8"?>
<!-- Generator: Adobe Illustrator 19.0.0, SVG Export Plug-In . SVG Version: 6.00 Build 0)  -->
<svg version="1.1" id="Layer_1" xmlns="http://www.w3.org/2000/svg" xmlns:xlink="http://www.w3.org/1999/xlink" x="0px" y="0px"
	 viewBox="0 0 188 43.9" style="enable-background:new 0 0 188 43.9;" xml:space="preserve">
<style type="text/css">
	.st0{fill:#E2E2E2;}
	.st1{fill:#E21E29;}
	.st2{fill:#010101;}
</style>
<g id="XMLID_38_">
	<path id="XMLID_41_" class="st0" d="M127.3,43.9h-11.7V0h11.7v5H122v33.9h5.2V43.9z"/>
	<path id="XMLID_39_" class="st0" d="M156.6,43.9h-11.8v-5h5.3V5h-5.3V0h11.8V43.9z"/>
</g>
<g id="XMLID_16_">
	<path id="XMLID_36_" class="st1" d="M14.3,33.9H0v-24h5.4v19.6h8.9V33.9z"/>
	<path id="XMLID_34_" class="st2" d="M35,33c-1.7,0.8-4,1.3-6.9,1.3c-3.7,0-6.6-1.1-8.7-3.2s-3.2-5-3.2-8.6c0-3.8,1.2-6.9,3.6-9.3
		c2.4-2.4,5.4-3.6,9.2-3.6c2.3,0,4.3,0.3,5.9,0.9v5.2c-1.6-1-3.4-1.4-5.5-1.4c-2.3,0-4.1,0.7-5.5,2.1C22.7,17.7,22,19.6,22,22
		c0,2.3,0.7,4.2,2,5.5c1.3,1.4,3.1,2.1,5.3,2.1c2.1,0,4-0.5,5.8-1.5V33z"/>
	<path id="XMLID_31_" class="st2" d="M47.9,34.3c-3.4,0-6.2-1.1-8.4-3.4c-2.2-2.2-3.2-5.1-3.2-8.7c0-3.8,1.1-6.9,3.3-9.2
		c2.2-2.3,5.1-3.5,8.7-3.5c3.4,0,6.2,1.1,8.3,3.4c2.1,2.2,3.2,5.2,3.2,8.9c0,3.8-1.1,6.8-3.3,9.1S51.5,34.3,47.9,34.3z M48.2,14.2
		c-1.9,0-3.4,0.7-4.5,2.1c-1.1,1.4-1.7,3.3-1.7,5.6c0,2.4,0.6,4.3,1.7,5.6c1.1,1.4,2.6,2.1,4.4,2.1c1.9,0,3.3-0.7,4.4-2
		c1.1-1.3,1.6-3.2,1.6-5.6c0-2.5-0.5-4.4-1.6-5.8C51.5,14.8,50,14.2,48.2,14.2z"/>
	<path id="XMLID_29_" class="st2" d="M84,33.9h-5.5l-9.9-15.1c-0.6-0.9-1-1.5-1.2-2h-0.1c0.1,0.8,0.1,2.1,0.1,3.9v13.2h-5.1v-24h5.8
		l9.5,14.6c0.4,0.7,0.8,1.3,1.2,2H79c-0.1-0.6-0.1-1.7-0.1-3.3V9.9H84V33.9z"/>
	<path id="XMLID_27_" class="st2" d="M102.4,14.3h-6.8v19.6h-5.4V14.3h-6.8V9.9h19.1V14.3z"/>
	<path id="XMLID_24_" class="st2" d="M125,33.9h-6.2l-3.7-6.2c-0.3-0.5-0.5-0.9-0.8-1.3s-0.5-0.7-0.8-0.9c-0.3-0.3-0.5-0.5-0.8-0.6
		c-0.3-0.1-0.6-0.2-0.9-0.2h-1.5v9.2h-5.4v-24h8.6c5.8,0,8.7,2.2,8.7,6.5c0,0.8-0.1,1.6-0.4,2.3s-0.6,1.3-1.1,1.9
		c-0.5,0.6-1,1.1-1.7,1.5s-1.4,0.7-2.2,1v0.1c0.4,0.1,0.7,0.3,1,0.5c0.3,0.3,0.7,0.5,1,0.9c0.3,0.3,0.6,0.7,0.9,1.1s0.5,0.8,0.8,1.1
		L125,33.9z M110.3,14v6.7h2.3c1.2,0,2.1-0.3,2.8-1c0.7-0.7,1.1-1.5,1.1-2.5c0-2.1-1.3-3.1-3.8-3.1H110.3z"/>
	<path id="XMLID_21_" class="st2" d="M148.4,33.9h-5.9l-1.7-5.3h-8.5l-1.7,5.3h-5.9l8.7-24h6.4L148.4,33.9z M139.5,24.4l-2.6-8.1
		c-0.2-0.6-0.3-1.3-0.4-2.2h-0.1c-0.1,0.7-0.2,1.4-0.4,2.1l-2.6,8.1H139.5z"/>
	<path id="XMLID_19_" class="st2" d="M166.8,33c-1.7,0.8-4,1.3-6.9,1.3c-3.7,0-6.6-1.1-8.7-3.2s-3.2-5-3.2-8.6
		c0-3.8,1.2-6.9,3.6-9.3c2.4-2.4,5.4-3.6,9.2-3.6c2.3,0,4.3,0.3,5.9,0.9v5.2c-1.6-1-3.4-1.4-5.5-1.4c-2.3,0-4.1,0.7-5.5,2.1
		s-2.1,3.3-2.1,5.8c0,2.3,0.7,4.2,2,5.5c1.3,1.4,3.1,2.1,5.3,2.1c2.1,0,4-0.5,5.8-1.5V33z"/>
	<path id="XMLID_17_" class="st2" d="M188,14.3h-6.8v19.6h-5.4V14.3H169V9.9H188V14.3z"/>
</g>
</svg>
